<?xml version="1.0" encoding="UTF-8"?> <svg xmlns="http://www.w3.org/2000/svg" width="1289" height="139" viewBox="0 0 1289 139" fill="none"><path d="M306.301 36.5308C290.378 30.8694 274.986 31.2232 261.363 43.0769C261.186 43.2538 260.832 43.2538 260.124 43.2538C260.124 29.8078 260.124 16.5388 260.124 3.26974C250.924 3.26974 242.078 3.26974 233.232 3.26974C233.232 47.1461 233.232 90.6685 233.232 134.368C241.725 134.368 250.04 134.368 258.532 134.368C258.532 130.653 258.532 127.291 258.532 123.222C270.209 135.253 277.639 138.437 291.97 137.552C316.208 135.96 337.262 116.853 340.623 93.6762C344.339 68.5535 330.362 45.023 306.301 36.5308ZM286.662 112.784C271.447 112.784 259.24 100.753 259.24 85.5378C259.24 70.3227 271.27 58.1151 286.486 58.1151C301.701 58.1151 313.908 70.3227 313.908 85.5378C313.908 100.576 301.878 112.784 286.662 112.784Z" fill="#080731"></path><path d="M501.444 75.0995C495.783 48.7384 471.721 31.4001 443.768 33.3463C418.999 35.1155 398.299 54.046 394.584 78.2841C391.046 101.991 405.376 125.522 428.907 134.191C445.891 140.383 464.114 139.322 476.144 123.93C476.321 123.753 476.498 123.753 477.206 123.753C477.206 127.468 477.206 131.006 477.206 134.722C485.875 134.722 494.013 134.722 502.506 134.722C502.506 116.676 502.506 99.1607 502.506 81.6456C502.506 79.3456 501.975 77.2226 501.444 75.0995ZM449.076 112.784C433.86 112.784 421.653 100.576 421.653 85.5378C421.653 70.4996 433.86 58.1151 448.899 58.1151C463.937 58.1151 476.321 70.3227 476.321 85.5378C476.321 100.399 464.114 112.784 449.076 112.784Z" fill="#080731"></path><path d="M916.323 77.9303C911.723 50.1537 887.308 31.4001 858.293 33.3463C833.878 34.9385 812.647 54.046 809.286 77.2226C805.57 102.168 819.193 125.522 843.254 134.191C861.123 140.56 877.577 139.676 890.846 123.93C890.846 123.93 891.023 123.93 891.554 124.107C891.554 127.468 891.554 131.006 891.554 134.722C900.223 134.722 908.361 134.722 917.03 134.722C917.03 133.837 917.207 133.129 917.207 132.422C917.207 116.145 917.207 100.045 917.207 83.7686C916.853 81.8225 916.676 79.8764 916.323 77.9303ZM862.892 112.784C847.5 112.43 835.647 100.045 836.001 84.6532C836.354 69.4381 848.916 57.7613 864.131 58.1151C879.169 58.469 891.023 71.0304 890.669 86.2455C890.138 101.107 877.754 113.137 862.892 112.784Z" fill="#080731"></path><path d="M712.157 57.4075C718.172 50.5076 724.01 43.6077 730.556 36.0001C720.118 36.0001 710.564 36.0001 700.834 36.0001C698.534 36.0001 697.118 36.7078 695.526 38.477C686.503 49.4461 677.48 60.2382 668.28 71.0304C667.749 71.7381 667.042 72.6227 666.511 73.3303C666.157 73.1534 665.98 72.9765 665.626 72.7996C665.626 49.623 665.626 26.6233 665.626 3.44669C656.427 3.44669 647.404 3.44669 638.558 3.44669C638.558 47.323 638.558 90.8455 638.558 134.722C647.581 134.722 656.604 134.722 665.803 134.722C665.803 117.737 665.803 100.93 665.803 83.2379C667.219 84.8302 667.926 85.8917 668.634 86.7763C680.311 101.815 691.811 117.03 703.311 132.245C704.903 134.368 706.672 135.253 709.326 135.076C717.818 134.899 726.31 135.076 734.802 135.076C735.864 135.076 736.925 134.899 738.518 134.899C723.48 115.791 708.795 97.2146 693.934 78.461C700.303 71.0304 706.141 64.3074 712.157 57.4075Z" fill="#080731"></path><path d="M1155.87 34.2308C1131.28 39.5385 1113.59 59.8843 1113.06 83.7686C1112.35 113.668 1136.59 137.729 1167.37 137.906C1171.09 137.376 1174.98 137.199 1178.7 136.491C1209.48 130.653 1228.41 100.399 1219.92 71.0303C1212.13 44.6692 1183.65 28.2155 1155.87 34.2308ZM1167.55 112.784C1152.51 112.784 1140.66 100.753 1140.48 85.5378C1140.48 70.1457 1152.51 57.9382 1167.55 57.9382C1182.41 57.9382 1194.44 70.1457 1194.44 85.3609C1194.44 100.576 1182.41 112.784 1167.55 112.784Z" fill="#080731"></path><path d="M1005.67 101.107C997.353 112.784 982.315 116.322 969.93 109.068C957.546 101.815 952.769 86.2455 958.961 73.5072C968.161 54.3998 994.168 52.6306 1006.38 70.1458C1007.08 71.2073 1008.5 72.6226 1009.56 72.6226C1018.41 72.7996 1027.25 72.7996 1036.63 72.7996C1035.92 70.6765 1035.39 69.0842 1034.86 67.4919C1023.54 38.8308 989.569 25.3848 960.554 38.1231C938.439 47.8537 925.346 71.0303 929.416 93.6762C933.308 115.437 949.938 132.245 971.876 136.845C994.345 141.445 1017.7 132.068 1029.55 113.491C1032.21 109.245 1034.15 104.468 1036.81 99.1607C1026.37 99.1607 1017.17 99.1607 1008.15 99.3377C1007.44 98.9838 1006.2 100.222 1005.67 101.107Z" fill="#080731"></path><path d="M550.098 37.0616C529.929 45.3769 520.198 61.8305 519.313 83.2379C518.606 99.5146 519.136 115.791 519.136 132.068C519.136 132.776 519.313 133.66 519.49 134.191C528.513 134.191 537.536 134.191 546.559 134.191C546.559 132.599 546.559 131.36 546.559 130.122C546.559 115.614 546.559 101.107 546.559 86.7763C546.559 83.4148 546.736 79.8764 547.621 76.5149C550.274 64.8381 558.944 57.7613 570.266 57.7613C581.589 57.7613 590.258 65.015 592.912 76.6918C593.62 80.2302 593.974 83.9455 593.974 87.6609C594.151 101.991 593.974 116.322 593.974 130.653C593.974 131.891 593.974 133.13 593.974 134.368C603.351 134.368 612.02 134.368 621.22 134.368C621.22 116.853 621.75 99.6915 621.043 82.7071C619.45 43.4307 582.297 23.9695 550.098 37.0616Z" fill="#080731"></path><path d="M1075.37 3.26974C1066.17 3.26974 1057.51 3.26974 1048.48 3.26974C1048.31 4.15435 1048.31 5.03895 1048.31 5.74664C1048.31 32.9924 1048.13 60.2382 1048.48 87.307C1048.66 110.13 1062.99 129.06 1083.87 135.429C1090.06 137.376 1096.25 137.906 1102.8 137.552C1102.8 129.237 1102.8 121.099 1102.8 112.961C1101.91 112.784 1101.38 112.607 1100.67 112.607C1086.52 111.014 1076.44 100.753 1075.73 86.4224C1075.37 81.1148 1075.55 75.6303 1075.55 70.3227C1075.55 66.7843 1075.55 63.2458 1075.55 59.3536C1084.93 59.3536 1093.77 59.3536 1102.8 59.3536C1102.8 51.5691 1102.8 43.9615 1102.8 35.8231C1093.6 35.8231 1084.57 35.8231 1075.37 35.8231C1075.37 24.5002 1075.37 13.885 1075.37 3.26974Z" fill="#080731"></path><path d="M785.402 28.9232C789.294 23.9695 794.955 22.5541 800.971 21.8464C800.971 14.5927 800.971 7.33893 800.971 0.262106C790.355 -0.445577 780.271 -0.0917436 771.248 6.10048C760.987 13.1773 755.856 23.2618 755.148 36.0001C751.433 36.0001 748.071 36.0001 744.356 36.0001C744.356 43.9615 744.356 51.5691 744.356 59.5305C748.071 59.5305 751.61 59.5305 755.325 59.5305C755.325 84.6532 755.325 109.422 755.325 134.545C764.702 134.545 773.371 134.545 782.571 134.545C782.571 109.422 782.571 84.6532 782.571 59.3536C788.94 59.3536 794.778 59.3536 800.794 59.3536C800.794 51.3922 800.794 43.7846 800.794 35.8232C794.601 35.8232 788.763 35.8232 781.863 35.8232C783.279 33.1693 783.986 30.6924 785.402 28.9232Z" fill="#080731"></path><path d="M354.423 134.368C363.446 134.368 372.469 134.368 381.315 134.368C381.315 90.4916 381.315 46.9691 381.315 3.09282C372.292 3.09282 363.446 3.09282 354.423 3.09282C354.423 47.1461 354.423 90.8455 354.423 134.368Z" fill="#080731"></path><path d="M1273.88 34.2309C1250.17 39.1846 1234.07 59.3536 1233.9 84.2994C1233.72 100.222 1233.9 115.968 1233.9 131.891C1233.9 132.599 1233.9 133.483 1234.07 134.368C1234.96 134.545 1235.49 134.545 1236.2 134.545C1244.51 134.545 1252.65 134.545 1261.32 134.545C1261.32 132.776 1261.32 131.537 1261.32 130.299C1261.32 115.261 1261.14 100.222 1261.32 85.184C1261.5 72.6227 1269.46 62.1843 1281.31 58.8228C1283.61 58.1152 1286.09 57.9382 1288.56 57.5844C1288.56 49.446 1288.56 41.3077 1288.56 32.6386C1283.26 33.3463 1278.48 33.3463 1273.88 34.2309Z" fill="#080731"></path><path d="M38.2212 69.4644L73.1747 25.9504L54.4102 3L2.16389 63.7727C-0.595592 67.0776 -0.779555 72.0349 1.97993 75.3398L54.5941 138.867H94.1468L38.2212 69.4644Z" fill="#00C3E5"></path><path d="M147.854 72.4021L112.969 115.916L131.146 138.867L183.84 78.0938C186.594 74.7889 186.778 69.8316 184.024 66.5268L131.513 3H91.855L147.854 72.4021Z" fill="#00C3E5"></path></svg> 