<?xml version="1.0" standalone="no"?>
<!DOCTYPE svg PUBLIC "-//W3C//DTD SVG 20010904//EN"
 "http://www.w3.org/TR/2001/REC-SVG-20010904/DTD/svg10.dtd">
<svg version="1.0" xmlns="http://www.w3.org/2000/svg"
 width="1920.000000pt" height="1080.000000pt" viewBox="0 0 1920.000000 1080.000000"
 preserveAspectRatio="xMidYMid meet">

<g transform="translate(0.000000,1080.000000) scale(0.100000,-0.100000)"
fill="#000000" stroke="none">
<path d="M5192 8983 c-71 -205 -123 -351 -312 -883 -116 -327 -252 -709 -302
-849 -101 -287 -125 -340 -177 -394 -58 -62 -102 -79 -213 -85 l-98 -5 0 -48
0 -49 455 0 455 0 0 49 0 49 -119 3 c-132 4 -153 13 -199 80 -21 30 -23 43
-20 114 4 64 16 112 60 240 l55 160 389 0 389 0 82 -235 c45 -129 82 -245 82
-257 1 -37 -20 -71 -54 -88 -24 -11 -66 -15 -159 -15 l-126 0 0 -50 0 -50 515
0 515 0 0 49 0 49 -127 3 c-149 5 -180 17 -225 89 -15 25 -87 218 -159 430
-119 351 -240 705 -501 1470 l-94 275 -46 3 -46 3 -20 -58z m80 -798 c203
-591 227 -660 233 -677 6 -16 -16 -18 -334 -20 -242 -2 -341 0 -341 8 0 6 74
233 165 505 91 272 165 496 166 499 1 7 3 2 111 -315z"/>
<path d="M11275 8938 c-44 -16 -72 -45 -91 -94 -46 -120 30 -234 156 -234 66
0 110 24 148 80 20 30 23 44 20 97 -4 67 -21 100 -71 137 -31 23 -117 31 -162
14z"/>
<path d="M10217 8703 c-6 -140 -24 -226 -67 -318 -61 -128 -150 -195 -262
-195 l-58 0 0 -45 0 -45 120 0 120 0 0 -547 c0 -333 4 -574 11 -613 21 -130
86 -228 187 -277 51 -25 68 -28 157 -28 90 0 105 3 155 28 128 66 186 182 197
395 l6 112 -24 0 c-24 0 -25 -4 -37 -102 -20 -173 -76 -260 -183 -289 -83 -22
-162 10 -201 83 l-23 43 -3 598 -3 597 206 0 205 0 0 45 0 45 -205 0 -205 0 0
320 0 320 -44 0 -43 0 -6 -127z"/>
<path d="M8978 8214 c-95 -17 -165 -48 -244 -108 -146 -110 -250 -297 -284
-510 -18 -107 -8 -328 19 -431 11 -44 42 -123 67 -175 39 -79 61 -109 133
-180 61 -61 105 -95 152 -118 163 -79 349 -82 499 -9 67 32 169 140 212 222
53 103 97 272 71 276 -60 10 -63 6 -87 -95 -61 -259 -266 -415 -490 -375 -80
14 -125 39 -174 95 -47 52 -73 115 -99 236 -26 119 -27 655 -1 768 26 119 55
185 105 240 73 81 108 95 238 95 91 0 118 -4 157 -22 74 -34 115 -71 143 -128
35 -71 28 -95 -37 -126 -96 -45 -136 -145 -86 -218 39 -57 71 -75 132 -74 70
2 111 24 145 78 100 157 -11 418 -220 518 -72 35 -169 58 -239 56 -19 0 -70
-7 -112 -15z"/>
<path d="M14445 8220 c-46 -10 -117 -41 -160 -70 -54 -36 -140 -128 -185 -199
-25 -39 -48 -70 -52 -70 -5 -1 -8 69 -8 154 l0 155 -225 0 -225 0 0 -40 0 -40
88 0 c73 0 92 -3 105 -18 15 -17 17 -77 17 -663 0 -531 -2 -648 -14 -664 -11
-15 -30 -20 -105 -23 l-91 -4 0 -34 0 -34 330 0 330 0 0 34 0 34 -91 4 c-75 3
-94 8 -105 23 -21 29 -20 795 1 896 64 302 321 547 502 478 45 -16 91 -68 116
-128 22 -56 22 -61 25 -647 2 -536 1 -592 -14 -604 -9 -9 -51 -16 -105 -18
l-89 -4 0 -34 0 -34 329 0 329 0 4 30 c3 17 2 32 0 35 -3 3 -35 5 -72 5 -82 0
-126 14 -134 43 -3 12 -6 246 -6 520 0 414 -3 511 -16 575 -44 216 -167 334
-359 346 -44 3 -98 1 -120 -4z"/>
<path d="M6600 8150 l0 -40 84 0 c138 0 125 59 129 -575 3 -481 5 -547 21
-600 58 -195 172 -292 356 -303 71 -4 101 -1 158 17 117 35 238 140 314 272
18 32 36 59 41 59 4 0 7 -70 7 -155 l0 -155 225 0 225 0 0 34 0 34 -91 4 c-75
3 -94 8 -105 23 -12 16 -14 142 -14 722 l0 703 -225 0 -225 0 0 -40 0 -40 89
0 c68 0 93 -4 105 -16 14 -13 16 -67 16 -433 0 -384 -2 -424 -20 -497 -62
-246 -261 -459 -426 -457 -92 1 -156 54 -192 160 -15 42 -17 124 -20 686 l-3
637 -224 0 -225 0 0 -40z"/>
<path d="M11030 8150 l0 -40 88 0 c73 0 92 -3 105 -18 15 -17 17 -77 17 -663
0 -531 -2 -648 -14 -664 -11 -15 -30 -20 -105 -23 l-91 -4 0 -34 0 -34 325 0
325 0 0 34 0 33 -86 5 c-70 4 -89 8 -100 23 -12 15 -14 144 -14 722 l0 703
-225 0 -225 0 0 -40z"/>
<path d="M12081 8179 c-180 -34 -338 -145 -413 -293 -59 -115 -75 -211 -58
-351 26 -215 100 -366 254 -515 103 -100 186 -161 377 -275 244 -146 324 -208
390 -302 17 -24 36 -43 43 -43 7 0 22 18 34 39 38 67 151 161 308 256 218 131
300 185 385 253 202 163 315 372 334 624 9 105 -11 206 -59 303 -131 264 -455
382 -713 258 -85 -40 -208 -167 -253 -260 -19 -40 -38 -73 -41 -73 -3 0 -14
19 -25 43 -68 157 -222 294 -365 326 -66 15 -149 19 -198 10z"/>
<path d="M11335 6476 c-47 -21 -70 -52 -70 -98 0 -38 6 -46 75 -111 350 -328
515 -471 606 -526 35 -22 75 -36 121 -43 37 -6 124 -28 193 -49 289 -90 771
-197 985 -219 71 -7 282 -10 590 -8 l480 3 0 385 0 385 -250 3 -251 2 -12 46
c-17 63 -90 134 -168 164 -121 46 -327 37 -550 -25 -203 -57 -267 -68 -379
-69 -93 0 -128 5 -230 33 -130 35 -234 43 -297 22 -35 -12 -90 -63 -100 -92
-3 -10 -25 0 -74 32 -175 118 -356 179 -449 151 -19 -5 -44 -4 -70 3 -72 22
-119 25 -150 11z m117 -52 c14 -4 16 -13 11 -52 -8 -73 20 -103 390 -427 82
-72 167 -147 190 -168 42 -37 42 -37 12 -31 -45 10 -95 38 -154 84 -182 144
-591 525 -591 550 0 10 12 28 27 40 27 21 54 22 115 4z m253 -19 c32 -9 87
-29 122 -46 85 -41 240 -145 259 -175 25 -37 67 -57 230 -112 83 -28 184 -67
225 -85 109 -51 139 -57 306 -67 160 -10 213 -23 233 -59 14 -27 50 -28 50 -2
0 29 -55 79 -99 91 -21 5 -92 13 -157 16 -158 7 -211 18 -324 69 -52 23 -159
64 -237 90 -79 26 -154 56 -168 67 -33 26 -32 60 3 99 52 58 143 58 357 1 77
-20 123 -26 200 -26 111 0 156 8 360 64 331 89 550 79 650 -31 19 -21 37 -51
40 -66 3 -16 9 -39 13 -53 l7 -25 248 -3 247 -2 0 -340 0 -340 -487 0 c-537 0
-590 5 -901 70 -262 56 -591 144 -686 184 -21 9 -95 67 -165 129 -69 62 -197
175 -283 250 -218 191 -259 241 -230 283 24 36 93 43 187 19z"/>
<path d="M1020 4320 l0 -50 139 0 c122 0 142 -2 162 -19 l24 -19 3 -949 c3
-1051 5 -1029 -61 -1108 -44 -54 -96 -75 -189 -75 l-78 0 0 -50 0 -50 395 0
395 0 0 49 0 49 -94 4 c-81 3 -99 7 -135 31 -25 17 -51 47 -68 80 l-28 52 -3
908 c-2 681 0 908 9 905 6 -2 46 -121 89 -263 43 -143 176 -584 295 -980 120
-396 227 -754 239 -795 l22 -75 41 -3 c42 -3 42 -3 54 40 6 24 56 205 111 403
54 198 182 662 284 1030 102 369 189 681 194 695 5 15 9 -385 9 -978 l1 -1003
-25 -24 c-23 -24 -29 -25 -165 -25 l-140 0 0 -50 0 -50 485 0 485 0 0 50 0 50
-139 0 c-125 0 -141 2 -165 21 l-26 20 0 1042 c0 573 4 1047 8 1053 18 27 56
34 186 34 l136 0 0 50 0 50 -347 -2 -346 -3 -89 -320 c-107 -387 -196 -709
-319 -1155 -50 -184 -94 -338 -98 -342 -6 -7 -44 118 -302 992 -72 245 -157
531 -188 635 l-57 190 -352 3 -352 2 0 -50z"/>
<path d="M6750 4336 l0 -34 106 -4 c91 -3 108 -6 120 -22 21 -29 21 -2152 0
-2181 -12 -17 -30 -20 -120 -23 l-106 -4 0 -34 0 -34 330 0 330 0 0 34 0 33
-77 5 c-59 4 -79 9 -90 24 -10 13 -13 69 -13 234 l0 216 76 93 c42 51 80 89
84 84 42 -49 346 -494 356 -522 32 -88 9 -119 -93 -128 l-73 -6 0 -33 0 -34
350 0 350 0 0 35 c0 33 -2 35 -32 35 -56 0 -103 18 -135 52 -17 18 -138 186
-269 373 -131 187 -250 358 -266 379 -15 21 -28 44 -28 50 0 6 40 59 88 117
48 59 120 147 161 197 128 157 189 194 328 200 l93 4 0 39 0 39 -335 0 -335 0
0 -39 0 -39 75 -4 c94 -4 121 -25 119 -92 -1 -53 8 -41 -284 -395 l-225 -273
-3 846 -2 846 -240 0 -240 0 0 -34z"/>
<path d="M12920 4335 l0 -35 99 0 c82 0 103 -3 122 -19 l24 -19 3 -1070 c2
-1042 2 -1070 -17 -1093 -18 -22 -28 -24 -125 -27 l-106 -4 0 -34 0 -34 365 0
365 0 0 34 0 34 -105 4 c-115 3 -133 12 -140 64 -2 16 -4 525 -4 1132 l-1
1102 -240 0 -240 0 0 -35z"/>
<path d="M10408 4018 c-4 -121 -9 -155 -32 -222 -32 -95 -64 -150 -112 -199
-50 -50 -98 -70 -176 -75 l-68 -4 0 -44 0 -43 123 -3 122 -3 5 -600 5 -600 32
-67 c37 -78 90 -134 158 -168 43 -21 64 -25 150 -25 81 0 109 4 146 21 133 62
197 187 215 422 l7 92 -32 0 c-31 0 -31 0 -31 -52 0 -69 -23 -176 -49 -225
-42 -83 -131 -132 -214 -119 -66 11 -93 31 -124 93 l-28 58 0 585 0 585 208 3
207 2 0 45 0 45 -210 0 -210 0 0 320 0 320 -44 0 -43 0 -5 -142z"/>
<path d="M4265 3553 c-164 -24 -297 -109 -355 -227 -61 -123 -48 -259 30 -330
47 -42 72 -50 146 -44 46 4 61 10 87 37 27 27 32 39 32 80 0 65 -26 100 -95
126 -69 26 -94 59 -84 110 10 53 55 99 133 137 62 31 72 33 176 33 101 0 114
-2 162 -27 55 -30 92 -70 120 -134 14 -31 18 -78 21 -234 l4 -196 -178 -33
c-356 -65 -471 -105 -572 -196 -126 -113 -164 -336 -87 -499 61 -129 213 -202
401 -194 69 3 91 8 156 40 89 45 189 143 228 226 14 28 30 52 36 52 7 0 15
-25 19 -57 19 -158 112 -251 262 -261 59 -4 79 -1 117 18 103 49 152 156 171
373 l7 77 -30 0 -29 0 -6 -77 c-11 -141 -56 -233 -125 -253 -46 -14 -84 -2
-109 37 -17 25 -18 68 -24 533 -5 483 -6 508 -27 570 -46 139 -149 236 -300
283 -76 24 -224 40 -287 30z m375 -902 l0 -159 -37 -88 c-43 -103 -119 -221
-165 -256 -154 -117 -327 -90 -379 59 -21 59 -18 245 5 313 29 87 85 153 158
189 59 29 326 97 391 100 l27 1 0 -159z"/>
<path d="M6249 3547 c-137 -39 -248 -164 -345 -389 -15 -38 -32 -68 -36 -68
-5 0 -8 97 -8 215 l0 215 -225 0 -225 0 0 -40 0 -40 88 0 c73 0 92 -3 105 -18
15 -17 17 -77 17 -663 0 -531 -2 -648 -14 -664 -11 -15 -30 -20 -105 -23 l-91
-4 0 -34 0 -34 330 0 330 0 0 34 0 34 -91 4 c-76 4 -94 8 -106 24 -12 16 -14
71 -10 339 4 282 7 332 26 420 55 252 145 449 248 545 64 61 107 80 175 80 53
0 87 -16 94 -44 8 -34 -9 -60 -70 -105 -60 -45 -86 -90 -86 -151 0 -34 6 -48
33 -75 79 -79 210 -50 266 60 22 42 26 62 25 130 -1 87 -16 132 -61 185 -52
63 -172 93 -264 67z"/>
<path d="M9110 3553 c-133 -15 -285 -106 -375 -225 -61 -81 -129 -221 -155
-323 -28 -105 -36 -266 -21 -390 49 -385 278 -631 607 -652 167 -11 290 33
398 142 81 81 147 236 158 370 3 39 2 40 -33 43 -37 3 -37 3 -44 -45 -21 -139
-94 -289 -171 -350 -114 -89 -269 -113 -397 -60 -53 23 -120 89 -150 149 -50
99 -87 302 -87 474 l0 64 461 0 462 0 -7 88 c-30 386 -233 674 -501 712 -71
10 -81 10 -145 3z m124 -84 c26 -7 58 -29 92 -64 83 -86 132 -241 149 -477 l6
-88 -320 0 -321 0 0 58 c0 71 24 230 45 301 41 134 125 249 198 270 45 13 105
13 151 0z"/>
<path d="M12023 3550 c-76 -16 -150 -59 -226 -133 -40 -40 -80 -83 -89 -96
-27 -45 -38 -17 -38 95 l0 104 -240 0 -240 0 0 -40 0 -40 103 0 c109 0 118 -3
136 -37 17 -33 16 -2028 -2 -2063 -12 -24 -18 -25 -122 -30 l-110 -5 -3 -37
-3 -38 365 0 366 0 0 40 0 40 -106 -1 c-86 -1 -109 2 -123 15 -14 15 -16 61
-19 408 -2 243 1 395 7 401 6 6 28 -7 63 -37 64 -56 164 -109 237 -126 33 -8
87 -11 138 -7 274 17 488 274 534 641 38 311 -43 621 -208 797 -77 82 -157
126 -261 145 -86 15 -99 15 -159 4z m155 -91 c57 -28 104 -94 136 -189 43
-132 51 -213 51 -525 -1 -264 -3 -300 -24 -395 -28 -131 -68 -218 -122 -264
-138 -117 -378 -24 -478 187 -53 113 -62 164 -68 393 -8 309 18 449 111 602
43 72 141 166 198 192 58 27 139 26 196 -1z"/>
<path d="M14374 3550 c-159 -23 -297 -115 -353 -235 -43 -91 -39 -234 8 -292
40 -48 91 -73 150 -73 94 0 143 42 143 125 0 71 -21 94 -113 129 -88 32 -90
118 -5 193 66 58 131 78 256 78 97 0 109 -2 158 -29 28 -16 63 -44 77 -62 49
-64 57 -105 63 -309 l4 -191 -203 -38 c-258 -47 -334 -68 -435 -116 -61 -29
-95 -54 -137 -99 -79 -86 -101 -146 -101 -281 0 -140 23 -202 103 -280 80 -79
157 -105 306 -105 105 0 114 2 180 34 84 41 187 141 231 225 16 31 34 56 40
56 6 0 14 -24 17 -53 10 -81 35 -143 76 -185 48 -49 99 -73 172 -79 187 -17
288 115 301 397 3 63 2 65 -22 68 -25 3 -26 1 -37 -93 -15 -126 -48 -197 -105
-226 -73 -37 -130 -3 -148 90 -6 31 -10 245 -10 510 0 271 -5 474 -11 500 -30
133 -134 248 -271 301 -112 43 -222 57 -334 40z m386 -896 l0 -157 -40 -94
c-50 -117 -79 -165 -139 -226 -82 -87 -182 -120 -277 -92 -97 28 -144 116
-144 270 0 195 73 317 223 373 59 22 305 79 350 81 l27 1 0 -156z"/>
<path d="M16125 3549 c-114 -17 -201 -57 -287 -129 -190 -158 -292 -426 -274
-720 8 -143 37 -255 97 -378 42 -86 63 -117 127 -181 185 -186 441 -233 661
-123 140 70 258 260 285 460 l6 43 -37 -3 -37 -4 -18 -74 c-22 -93 -86 -223
-133 -272 -84 -88 -184 -131 -300 -131 -266 0 -365 196 -365 724 0 437 72 639
250 703 73 26 205 19 281 -16 101 -46 164 -123 157 -191 -2 -26 -11 -36 -43
-52 -88 -43 -115 -80 -115 -156 0 -87 62 -145 152 -142 60 1 104 27 143 82 28
40 30 49 30 134 0 82 -4 99 -32 159 -36 76 -103 153 -171 197 -98 62 -248 90
-377 70z"/>
<path d="M17552 3549 c-225 -38 -428 -253 -503 -534 -27 -102 -37 -313 -20
-423 60 -377 282 -609 601 -629 172 -10 295 32 400 139 83 84 159 266 160 381
0 34 -2 37 -29 37 -37 0 -41 -6 -57 -94 -17 -91 -81 -220 -136 -275 -61 -60
-114 -89 -198 -107 -199 -41 -352 57 -414 266 -26 85 -46 235 -46 343 l0 97
461 0 461 0 -7 73 c-37 409 -229 687 -501 727 -79 11 -99 11 -172 -1z m200
-107 c106 -73 170 -241 186 -487 l7 -115 -319 0 -319 0 6 113 c11 208 74 388
165 468 55 48 89 59 168 55 49 -3 71 -10 106 -34z"/>
</g>
</svg>
